<svg width="65" height="44" viewBox="0 0 65 44" fill="none" xmlns="http://www.w3.org/2000/svg">
<path d="M11.7411 37.5941C11.6374 37.5691 11.598 37.5048 11.6229 37.4011C11.7974 36.6751 12.0264 35.8937 12.3098 35.0567C9.3169 33.8162 7.10104 31.9671 5.66227 29.5094C4.93254 28.2095 4.47044 26.8231 4.27597 25.3502C4.0815 23.8773 4.18371 22.3111 4.5826 20.6517C5.24325 17.9033 6.62154 15.4783 8.71747 13.3766C9.76854 12.3128 10.8989 11.4326 12.1085 10.7361C13.3441 10.0457 14.6491 9.52293 16.0236 9.16766C18.6759 8.5162 21.5319 8.5582 24.5914 9.29364C25.2655 9.45569 25.9433 9.65975 26.6246 9.90581C27.3122 10.1259 28.0034 10.3881 28.6983 10.6922C30.513 8.96179 32.4329 7.42118 34.458 6.07041L34.6323 6.03003C34.6582 6.03626 34.6649 6.0653 34.6525 6.11716C34.6151 6.27273 34.4937 6.43553 34.2882 6.60556C33.2217 7.39138 32.2584 8.14716 31.3983 8.8729C30.5382 9.59864 29.7844 10.2814 29.1369 10.9211C30.3388 11.5117 31.5547 12.2154 32.7846 13.0321C33.0025 12.8102 33.2302 12.6044 33.4678 12.4147C33.7054 12.225 33.943 12.0352 34.1806 11.8455C34.386 11.6755 34.5406 11.6029 34.6443 11.6279C34.7739 11.659 34.8232 11.7394 34.792 11.8691C34.7598 11.8888 34.7375 11.9245 34.7251 11.9764C33.8462 12.7799 33.0441 13.835 32.3186 15.1416C31.5994 16.4223 30.9371 17.9224 30.3318 19.6419C30.2435 19.895 29.9935 20.1365 29.5816 20.3666C29.1698 20.5968 28.8212 20.6775 28.536 20.609C28.3804 20.5716 28.3837 20.2158 28.5457 19.5417C28.9072 18.0379 29.7692 16.4486 31.1317 14.774C30.9928 14.439 30.6626 14.0442 30.141 13.5897C29.6257 13.1093 28.9159 12.5821 28.0117 12.0082C25.7559 14.3183 23.5903 16.9381 21.5149 19.8674C21.6475 20.2284 21.8694 20.4463 22.1805 20.5211C22.362 20.5648 21.7702 20.9162 20.405 21.5753C19.4222 23.0395 18.4788 24.568 17.5748 26.1609C17.3485 26.8744 17.0194 27.6729 16.5876 28.5565C16.1817 29.4463 15.7411 30.4237 15.2656 31.4887L14.7518 32.5994C14.4913 33.1127 14.2319 33.3932 13.9736 33.4408C13.8978 33.642 13.8059 33.8531 13.698 34.0739C13.616 34.3011 13.534 34.5282 13.4519 34.7553C13.8678 34.965 14.293 35.1357 14.7275 35.2676C15.188 35.4057 15.6516 35.5309 16.1183 35.6431C20.1371 36.6091 23.4769 35.4372 26.1375 32.1274C26.8472 31.2284 27.2894 30.4159 27.4639 29.6899C27.5761 29.2232 27.515 28.9068 27.2807 28.7408C27.2288 28.7283 27.206 28.7091 27.2122 28.6832C27.2683 28.4499 27.6594 28.4204 28.3853 28.5949C29.1632 28.7819 29.4275 29.394 29.1782 30.4311C28.5611 32.998 26.6821 34.7678 23.5411 35.7406C20.8326 36.6255 18.1301 36.7438 15.4336 36.0956C14.6557 35.9086 13.9002 35.6858 13.167 35.4273C13.0974 35.6026 13.0154 35.8297 12.9209 36.1087C12.8202 36.4136 12.7003 36.7413 12.5612 37.0918C12.3774 37.5139 12.1041 37.6813 11.7411 37.5941ZM12.6135 34.3069C13.0994 32.9701 13.7269 31.5577 14.496 30.0695C15.2714 28.5555 16.1593 26.9725 17.1597 25.3206L17.3747 24.4261C17.7861 22.7148 17.9267 21.103 17.7966 19.5907C17.4004 16.5609 16.0874 14.778 13.8576 14.242C13.7279 14.2108 13.5952 14.1926 13.4593 14.1874C13.3297 14.1562 13.1969 14.138 13.061 14.1328C14.0463 14.3696 14.4236 14.9677 14.193 15.927C14.0933 16.3419 13.8987 16.6379 13.6093 16.8152C13.4385 15.8142 12.9772 15.2234 12.2252 15.0426C11.966 14.9803 11.6522 14.9734 11.284 15.0221C11.2705 14.964 11.2825 14.8571 11.3199 14.7016C11.5754 13.6385 12.481 13.294 14.0367 13.6679C15.2294 13.9546 16.2513 14.6665 17.1025 15.8036C17.8686 16.838 18.322 17.9755 18.4626 19.216C18.682 20.5852 18.6177 22.0508 18.2696 23.6127C18.5052 23.2031 18.7538 22.7966 19.0153 22.3932C19.3028 21.996 19.5871 21.6119 19.8683 21.2406C19.7098 20.8734 19.6803 20.4824 19.7801 20.0675C19.8361 19.8342 20.0567 19.5443 20.4416 19.1981C20.8265 18.8518 21.1388 18.6937 21.3784 18.7239L21.372 19.0926C22.4201 17.699 23.4142 16.4158 24.3543 15.243C25.3007 14.0443 26.2455 13.0235 27.1886 12.1806L27.6602 11.7592C26.0985 10.7255 24.5398 10.0217 22.9841 9.64779C19.2245 8.74407 15.8441 9.34392 12.8426 11.4473C9.84023 13.4408 7.88093 16.3433 6.96474 20.1547C6.27292 23.0327 6.43685 25.7736 7.45653 28.3774C8.52084 30.9096 10.2398 32.8861 12.6135 34.3069Z" fill="#5C3E94"/>
<path d="M30.1113 25.9453L30.1055 26.0566C30.1055 26.5918 30.2754 27.0215 30.6152 27.3457C30.9707 27.6895 31.4531 27.8613 32.0625 27.8613C32.6172 27.8613 33.1328 27.6953 33.6094 27.3633C33.6992 27.3008 33.7793 27.2695 33.8496 27.2695C33.9941 27.2695 34.1035 27.3418 34.1777 27.4863L34.3359 27.8145C34.3711 27.8926 34.3887 27.9766 34.3887 28.0664C34.3887 28.1562 34.3477 28.25 34.2656 28.3477C34.1875 28.4414 34.084 28.5273 33.9551 28.6055C33.8262 28.6836 33.6758 28.752 33.5039 28.8105C33.3359 28.8691 33.1621 28.918 32.9824 28.957C32.623 29.0352 32.248 29.0742 31.8574 29.0742C31.4668 29.0742 31.0723 29 30.6738 28.8516C30.2793 28.7031 29.9375 28.4863 29.6484 28.2012C29.0273 27.5957 28.7168 26.7773 28.7168 25.7461C28.7168 23.9375 29.3535 22.8125 30.627 22.3711C31.0254 22.2344 31.4336 22.166 31.8516 22.166C32.2734 22.166 32.6309 22.2109 32.9238 22.3008C33.2207 22.3906 33.4766 22.5234 33.6914 22.6992C34.1445 23.0703 34.3711 23.5879 34.3711 24.252C34.3711 24.9043 34.1055 25.4023 33.5742 25.7461C33.1094 26.0469 32.4961 26.1973 31.7344 26.1973C31.2656 26.1973 30.7246 26.1133 30.1113 25.9453ZM32.9941 24.2344C32.9941 23.6758 32.6191 23.3965 31.8691 23.3965C31.1543 23.3965 30.6543 23.6582 30.3691 24.1816C30.2676 24.3652 30.2012 24.5918 30.1699 24.8613C30.5059 25.0293 30.9336 25.1133 31.4531 25.1133C32.4805 25.1133 32.9941 24.8203 32.9941 24.2344ZM40.5352 24.9258C40.2148 24.9258 40.0547 24.7676 40.0547 24.4512C40.0547 24.0879 39.9434 23.8105 39.7207 23.6191C39.5293 23.4512 39.2715 23.3672 38.9473 23.3672C38.627 23.3672 38.3613 23.4336 38.1504 23.5664C37.9395 23.6992 37.7676 23.8691 37.6348 24.0762C37.377 24.4824 37.248 24.9707 37.248 25.541C37.248 26.6074 37.5723 27.3066 38.2207 27.6387C38.4551 27.7598 38.7148 27.8203 39 27.8203C39.2852 27.8203 39.5195 27.7891 39.7031 27.7266C39.8867 27.6641 40.0508 27.5957 40.1953 27.5215C40.3398 27.4473 40.4648 27.3789 40.5703 27.3164C40.6797 27.2539 40.7695 27.2227 40.8398 27.2227C40.9805 27.2227 41.0918 27.2871 41.1738 27.416L41.3027 27.6328C41.3613 27.7344 41.3906 27.834 41.3906 27.9316C41.3906 28.0254 41.3516 28.125 41.2734 28.2305C41.1953 28.332 41.0898 28.4258 40.957 28.5117C40.8281 28.5977 40.6797 28.6758 40.5117 28.7461C40.3438 28.8164 40.1699 28.877 39.9902 28.9277C39.1309 29.1582 38.3457 29.123 37.6348 28.8223C36.8379 28.4863 36.2891 27.8848 35.9883 27.0176C35.8398 26.5879 35.7656 26.1074 35.7656 25.5762C35.7656 25.0449 35.8438 24.5684 36 24.1465C36.1602 23.7246 36.3809 23.3672 36.6621 23.0742C37.2441 22.4727 38.0039 22.1719 38.9414 22.1719C39.7695 22.1719 40.4043 22.3887 40.8457 22.8223C41.2168 23.1934 41.4023 23.6582 41.4023 24.2168C41.4023 24.6895 41.1602 24.9258 40.6758 24.9258H40.5352ZM43.8457 21.1875C43.5801 21.1875 43.3535 21.0957 43.166 20.9121C42.9785 20.7324 42.8848 20.5059 42.8848 20.2324C42.8848 19.9668 42.9785 19.7402 43.166 19.5527C43.3457 19.373 43.5723 19.2832 43.8457 19.2832C44.2637 19.2832 44.5566 19.4746 44.7246 19.8574C44.7754 19.9707 44.8008 20.0957 44.8008 20.2324C44.8008 20.5059 44.707 20.7324 44.5195 20.9121C44.332 21.0957 44.1074 21.1875 43.8457 21.1875ZM44.5312 27.3164C44.5312 27.5938 44.623 27.7324 44.8066 27.7324C44.8691 27.7324 44.9395 27.7148 45.0176 27.6797C45.1699 27.6133 45.2734 27.5801 45.3281 27.5801C45.4102 27.5801 45.4766 27.6367 45.5273 27.75L45.709 28.1602C45.7402 28.2266 45.7559 28.2891 45.7559 28.3477C45.7559 28.5156 45.6113 28.6719 45.3223 28.8164C45.0488 28.957 44.7773 29.0273 44.5078 29.0273C44.2422 29.0273 44.0293 28.998 43.8691 28.9395C43.709 28.8809 43.5723 28.7832 43.459 28.6465C43.2324 28.3652 43.1191 27.9082 43.1191 27.2754V22.7051C43.1191 22.5957 43.1504 22.5039 43.2129 22.4297C43.2754 22.3555 43.3496 22.3184 43.4355 22.3184H44.2207C44.3105 22.3184 44.3848 22.3555 44.4434 22.4297C44.502 22.5039 44.5312 22.5957 44.5312 22.7051V27.3164ZM48.5684 27.3164C48.5684 27.5938 48.666 27.7324 48.8613 27.7324C48.9238 27.7324 49.0039 27.7148 49.1016 27.6797C49.2812 27.6133 49.3906 27.5801 49.4297 27.5801C49.5195 27.5801 49.5898 27.6367 49.6406 27.75L49.8223 28.166C49.8457 28.2246 49.8574 28.2793 49.8574 28.3301C49.8574 28.4199 49.7832 28.5293 49.6348 28.6582C49.3379 28.9043 48.9492 29.0273 48.4688 29.0273C47.5938 29.0273 47.1562 28.4434 47.1562 27.2754V18.9199C47.1562 18.8145 47.1875 18.7246 47.25 18.6504C47.3125 18.5762 47.3867 18.5391 47.4727 18.5391H48.2578C48.3477 18.5391 48.4219 18.5762 48.4805 18.6504C48.5391 18.7246 48.5684 18.8145 48.5684 18.9199V27.3164ZM51.8613 21.1875C51.5957 21.1875 51.3691 21.0957 51.1816 20.9121C50.9941 20.7324 50.9004 20.5059 50.9004 20.2324C50.9004 19.9668 50.9941 19.7402 51.1816 19.5527C51.3613 19.373 51.5879 19.2832 51.8613 19.2832C52.2793 19.2832 52.5723 19.4746 52.7402 19.8574C52.791 19.9707 52.8164 20.0957 52.8164 20.2324C52.8164 20.5059 52.7227 20.7324 52.5352 20.9121C52.3477 21.0957 52.123 21.1875 51.8613 21.1875ZM52.5469 27.3164C52.5469 27.5938 52.6387 27.7324 52.8223 27.7324C52.8848 27.7324 52.9551 27.7148 53.0332 27.6797C53.1855 27.6133 53.2891 27.5801 53.3438 27.5801C53.4258 27.5801 53.4922 27.6367 53.543 27.75L53.7246 28.1602C53.7559 28.2266 53.7715 28.2891 53.7715 28.3477C53.7715 28.5156 53.627 28.6719 53.3379 28.8164C53.0645 28.957 52.793 29.0273 52.5234 29.0273C52.2578 29.0273 52.0449 28.998 51.8848 28.9395C51.7246 28.8809 51.5879 28.7832 51.4746 28.6465C51.248 28.3652 51.1348 27.9082 51.1348 27.2754V22.7051C51.1348 22.5957 51.166 22.5039 51.2285 22.4297C51.291 22.3555 51.3652 22.3184 51.4512 22.3184H52.2363C52.3262 22.3184 52.4004 22.3555 52.459 22.4297C52.5176 22.5039 52.5469 22.5957 52.5469 22.7051V27.3164ZM60.4688 28.6172C60.4688 28.8242 60.3672 28.9277 60.1641 28.9277H59.5957C59.4434 28.9277 59.3516 28.8984 59.3203 28.8398C59.2891 28.7773 59.2715 28.7227 59.2676 28.6758C59.2637 28.625 59.2559 28.5645 59.2441 28.4941C59.2207 28.3027 59.1875 28.0957 59.1445 27.873C58.8398 28.4316 58.3613 28.8008 57.709 28.9805C57.4785 29.043 57.2246 29.0742 56.9473 29.0742C56.6699 29.0742 56.3926 29.0273 56.1152 28.9336C55.8379 28.8438 55.5918 28.709 55.377 28.5293C54.8926 28.123 54.6504 27.5898 54.6504 26.9297C54.6504 26.207 54.916 25.6543 55.4473 25.2715C55.8848 24.9629 56.4473 24.8086 57.1348 24.8086C57.8223 24.8086 58.4043 25.0098 58.8809 25.4121C58.8926 25.2793 58.8984 25.1133 58.8984 24.9141C58.8984 24.7148 58.8594 24.5156 58.7812 24.3164C58.7031 24.1172 58.5918 23.9512 58.4473 23.8184C58.1504 23.5566 57.7363 23.4258 57.2051 23.4258C56.7285 23.4258 56.2441 23.5566 55.752 23.8184C55.6582 23.8691 55.5762 23.8945 55.5059 23.8945C55.4004 23.8945 55.2988 23.791 55.2012 23.584C55.0957 23.373 55.043 23.2207 55.043 23.127C55.043 22.9551 55.1719 22.7891 55.4297 22.6289C55.9219 22.3242 56.5801 22.1719 57.4043 22.1719C58.1543 22.1719 58.7754 22.377 59.2676 22.7871C59.8496 23.2793 60.1406 23.9746 60.1406 24.873C60.1406 25.2715 60.0762 25.7734 59.9473 26.3789C60.2793 27.3242 60.4531 28.0703 60.4688 28.6172ZM56.543 26.1328C56.3828 26.25 56.2676 26.3672 56.1973 26.4844C56.1309 26.6016 56.0977 26.7402 56.0977 26.9004C56.0977 27.0566 56.125 27.1973 56.1797 27.3223C56.2383 27.4434 56.3184 27.5449 56.4199 27.627C56.6348 27.7949 56.875 27.8789 57.1406 27.8789C57.4102 27.8789 57.6309 27.8477 57.8027 27.7852C57.9746 27.7227 58.123 27.6426 58.248 27.5449C58.5176 27.334 58.6523 27.1113 58.6523 26.877C58.6289 26.584 58.4668 26.3535 58.166 26.1855C57.8965 26.0293 57.5781 25.9512 57.2109 25.9512C56.9258 25.9512 56.7031 26.0117 56.543 26.1328Z" fill="#5C3E94"/>
<path d="M37.0394 31.5302C37.0394 31.4702 37.0252 31.4194 36.9969 31.3777C36.9685 31.3361 36.9302 31.3002 36.8819 31.2702C36.8352 31.2386 36.7835 31.2102 36.7269 31.1852C36.6702 31.1586 36.6135 31.1311 36.5569 31.1027C36.5002 31.0744 36.4477 31.0427 36.3994 31.0077C36.3527 30.9727 36.3152 30.9311 36.2869 30.8827C36.2585 30.8327 36.2444 30.7727 36.2444 30.7027C36.2444 30.6111 36.266 30.5327 36.3094 30.4677C36.3527 30.4011 36.4127 30.3502 36.4894 30.3152C36.566 30.2786 36.6535 30.2602 36.7519 30.2602C36.8219 30.2602 36.8935 30.2694 36.9669 30.2877C37.0402 30.3044 37.1052 30.3302 37.1619 30.3652L37.0944 30.5302C37.0444 30.4886 36.9852 30.4561 36.9169 30.4327C36.8502 30.4094 36.7844 30.3977 36.7194 30.3977C36.651 30.3977 36.5935 30.4102 36.5469 30.4352C36.5019 30.4602 36.4685 30.4927 36.4469 30.5327C36.4252 30.5711 36.4144 30.6136 36.4144 30.6602C36.4144 30.7119 36.4285 30.7569 36.4569 30.7952C36.4869 30.8319 36.5252 30.8644 36.5719 30.8927C36.6202 30.9211 36.6727 30.9486 36.7294 30.9752C36.786 31.0002 36.8427 31.0277 36.8994 31.0577C36.956 31.0861 37.0077 31.1194 37.0544 31.1577C37.1027 31.1961 37.141 31.2419 37.1694 31.2952C37.1994 31.3486 37.2144 31.4119 37.2144 31.4852C37.2144 31.5836 37.191 31.6677 37.1444 31.7377C37.0977 31.8077 37.0335 31.8611 36.9519 31.8977C36.8719 31.9344 36.7802 31.9527 36.6769 31.9527C36.5735 31.9527 36.4769 31.9377 36.3869 31.9077C36.2985 31.8761 36.2252 31.8344 36.1669 31.7827L36.2594 31.6302C36.3194 31.6869 36.3894 31.7311 36.4694 31.7627C36.5494 31.7944 36.6302 31.8102 36.7119 31.8102C36.8152 31.8102 36.8952 31.7852 36.9519 31.7352C37.0102 31.6836 37.0394 31.6152 37.0394 31.5302ZM37.983 31.9477C37.8814 31.9477 37.7914 31.9261 37.713 31.8827C37.6347 31.8377 37.5722 31.7761 37.5255 31.6977C37.4805 31.6177 37.458 31.5269 37.458 31.4252C37.458 31.3186 37.4822 31.2236 37.5305 31.1402C37.5789 31.0569 37.6447 30.9911 37.728 30.9427C37.8114 30.8944 37.9055 30.8702 38.0105 30.8702C38.0822 30.8702 38.1464 30.8819 38.203 30.9052C38.2597 30.9286 38.3105 30.9602 38.3555 31.0002L38.283 31.1327C38.2414 31.0894 38.1964 31.0561 38.148 31.0327C38.0997 31.0094 38.0472 30.9977 37.9905 30.9977C37.9189 30.9977 37.8564 31.0161 37.803 31.0527C37.7497 31.0894 37.7089 31.1386 37.6805 31.2002C37.6539 31.2619 37.6405 31.3311 37.6405 31.4077C37.6405 31.4894 37.6572 31.5611 37.6905 31.6227C37.7239 31.6844 37.7697 31.7319 37.828 31.7652C37.888 31.7986 37.9547 31.8152 38.028 31.8152C38.0797 31.8152 38.1305 31.8052 38.1805 31.7852C38.2305 31.7636 38.2755 31.7336 38.3155 31.6952L38.373 31.7927C38.3347 31.8294 38.2939 31.8594 38.2505 31.8827C38.2072 31.9061 38.163 31.9227 38.118 31.9327C38.073 31.9427 38.028 31.9477 37.983 31.9477ZM38.6843 31.9277V30.9052L38.8543 30.8777V31.9277H38.6843ZM38.7693 30.5877C38.7343 30.5877 38.7052 30.5769 38.6818 30.5552C38.6602 30.5336 38.6493 30.5052 38.6493 30.4702C38.6493 30.4352 38.6602 30.4069 38.6818 30.3852C38.7052 30.3636 38.7343 30.3527 38.7693 30.3527C38.806 30.3527 38.8352 30.3636 38.8568 30.3852C38.8785 30.4069 38.8893 30.4352 38.8893 30.4702C38.8893 30.5052 38.8785 30.5336 38.8568 30.5552C38.8352 30.5769 38.806 30.5877 38.7693 30.5877ZM39.7113 31.9502C39.6129 31.9502 39.5263 31.9302 39.4513 31.8902C39.3763 31.8486 39.3171 31.7902 39.2738 31.7152C39.2321 31.6386 39.2113 31.5486 39.2113 31.4452C39.2113 31.3302 39.2346 31.2302 39.2813 31.1452C39.3296 31.0586 39.3938 30.9919 39.4738 30.9452C39.5554 30.8969 39.6471 30.8727 39.7488 30.8727C39.8721 30.8727 39.9646 30.9077 40.0263 30.9777C40.0879 31.0477 40.1188 31.1436 40.1188 31.2652C40.1188 31.2786 40.1179 31.2936 40.1163 31.3102C40.1163 31.3252 40.1154 31.3394 40.1138 31.3527H39.9663V31.2652C39.9663 31.1752 39.9479 31.1077 39.9113 31.0627C39.8746 31.0161 39.8171 30.9927 39.7388 30.9927C39.6654 30.9927 39.6013 31.0111 39.5463 31.0477C39.4913 31.0827 39.4488 31.1319 39.4188 31.1952C39.3888 31.2586 39.3738 31.3344 39.3738 31.4227C39.3738 31.5427 39.4079 31.6386 39.4763 31.7102C39.5446 31.7802 39.6338 31.8152 39.7438 31.8152C39.8004 31.8152 39.8546 31.8052 39.9063 31.7852C39.9579 31.7652 40.0079 31.7327 40.0563 31.6877L40.1188 31.7802C40.0738 31.8219 40.0279 31.8552 39.9813 31.8802C39.9363 31.9052 39.8913 31.9227 39.8463 31.9327C39.8013 31.9444 39.7563 31.9502 39.7113 31.9502ZM39.3063 31.3527L39.3288 31.2452H40.0913V31.3527H39.3063ZM41.1939 31.9277V31.3277C41.1939 31.2261 41.1714 31.1477 41.1264 31.0927C41.0814 31.0361 41.0172 31.0077 40.9339 31.0077C40.8906 31.0077 40.8447 31.0169 40.7964 31.0352C40.7497 31.0519 40.7047 31.0786 40.6614 31.1152C40.6197 31.1519 40.5839 31.1994 40.5539 31.2577L40.4964 31.2002C40.5347 31.1252 40.5814 31.0644 40.6364 31.0177C40.6931 30.9694 40.7531 30.9344 40.8164 30.9127C40.8814 30.8894 40.9431 30.8777 41.0014 30.8777C41.0747 30.8777 41.1381 30.8936 41.1914 30.9252C41.2464 30.9552 41.2889 30.9994 41.3189 31.0577C41.3489 31.1161 41.3639 31.1869 41.3639 31.2702V31.9277H41.1939ZM40.4289 31.9277V30.9077L40.5689 30.8777L40.5989 31.1252V31.9277H40.4289ZM42.1896 31.9477C42.0879 31.9477 41.9979 31.9261 41.9196 31.8827C41.8412 31.8377 41.7787 31.7761 41.7321 31.6977C41.6871 31.6177 41.6646 31.5269 41.6646 31.4252C41.6646 31.3186 41.6887 31.2236 41.7371 31.1402C41.7854 31.0569 41.8512 30.9911 41.9346 30.9427C42.0179 30.8944 42.1121 30.8702 42.2171 30.8702C42.2887 30.8702 42.3529 30.8819 42.4096 30.9052C42.4662 30.9286 42.5171 30.9602 42.5621 31.0002L42.4896 31.1327C42.4479 31.0894 42.4029 31.0561 42.3546 31.0327C42.3062 31.0094 42.2537 30.9977 42.1971 30.9977C42.1254 30.9977 42.0629 31.0161 42.0096 31.0527C41.9562 31.0894 41.9154 31.1386 41.8871 31.2002C41.8604 31.2619 41.8471 31.3311 41.8471 31.4077C41.8471 31.4894 41.8637 31.5611 41.8971 31.6227C41.9304 31.6844 41.9762 31.7319 42.0346 31.7652C42.0946 31.7986 42.1612 31.8152 42.2346 31.8152C42.2862 31.8152 42.3371 31.8052 42.3871 31.7852C42.4371 31.7636 42.4821 31.7336 42.5221 31.6952L42.5796 31.7927C42.5412 31.8294 42.5004 31.8594 42.4571 31.8827C42.4137 31.9061 42.3696 31.9227 42.3246 31.9327C42.2796 31.9427 42.2346 31.9477 42.1896 31.9477ZM43.2684 31.9502C43.17 31.9502 43.0834 31.9302 43.0084 31.8902C42.9334 31.8486 42.8742 31.7902 42.8309 31.7152C42.7892 31.6386 42.7684 31.5486 42.7684 31.4452C42.7684 31.3302 42.7917 31.2302 42.8384 31.1452C42.8867 31.0586 42.9509 30.9919 43.0309 30.9452C43.1125 30.8969 43.2042 30.8727 43.3059 30.8727C43.4292 30.8727 43.5217 30.9077 43.5834 30.9777C43.645 31.0477 43.6759 31.1436 43.6759 31.2652C43.6759 31.2786 43.675 31.2936 43.6734 31.3102C43.6734 31.3252 43.6725 31.3394 43.6709 31.3527H43.5234V31.2652C43.5234 31.1752 43.505 31.1077 43.4684 31.0627C43.4317 31.0161 43.3742 30.9927 43.2959 30.9927C43.2225 30.9927 43.1584 31.0111 43.1034 31.0477C43.0484 31.0827 43.0059 31.1319 42.9759 31.1952C42.9459 31.2586 42.9309 31.3344 42.9309 31.4227C42.9309 31.5427 42.965 31.6386 43.0334 31.7102C43.1017 31.7802 43.1909 31.8152 43.3009 31.8152C43.3575 31.8152 43.4117 31.8052 43.4634 31.7852C43.515 31.7652 43.565 31.7327 43.6134 31.6877L43.6759 31.7802C43.6309 31.8219 43.585 31.8552 43.5384 31.8802C43.4934 31.9052 43.4484 31.9227 43.4034 31.9327C43.3584 31.9444 43.3134 31.9502 43.2684 31.9502ZM42.8634 31.3527L42.8859 31.2452H43.6484V31.3527H42.8634ZM44.6913 31.9277V30.8577C44.6913 30.7011 44.7154 30.5711 44.7638 30.4677C44.8121 30.3627 44.8796 30.2836 44.9663 30.2302C45.0546 30.1769 45.1554 30.1502 45.2688 30.1502C45.3204 30.1502 45.3696 30.1569 45.4163 30.1702C45.4646 30.1836 45.5079 30.2036 45.5463 30.2302L45.4738 30.3577C45.4388 30.3327 45.3988 30.3127 45.3538 30.2977C45.3104 30.2811 45.2646 30.2727 45.2163 30.2727C45.1396 30.2727 45.0779 30.2902 45.0312 30.3252C44.9846 30.3602 44.9488 30.4052 44.9238 30.4602C44.9004 30.5152 44.8838 30.5744 44.8738 30.6377C44.8654 30.6994 44.8613 30.7577 44.8613 30.8127V31.9277H44.6913ZM44.4788 31.0327L44.4913 30.9202L45.2738 30.9102L45.2613 31.0352L44.4788 31.0327ZM45.8786 31.9477C45.7769 31.9477 45.6861 31.9252 45.6061 31.8802C45.5278 31.8352 45.4653 31.7736 45.4186 31.6952C45.3736 31.6152 45.3511 31.5244 45.3511 31.4227C45.3511 31.3161 45.3753 31.2211 45.4236 31.1377C45.4736 31.0544 45.5411 30.9894 45.6261 30.9427C45.7111 30.8944 45.8069 30.8702 45.9136 30.8702C46.0153 30.8702 46.1053 30.8927 46.1836 30.9377C46.2636 30.9827 46.3261 31.0452 46.3711 31.1252C46.4178 31.2036 46.4411 31.2936 46.4411 31.3952C46.4411 31.5019 46.4169 31.5969 46.3686 31.6802C46.3203 31.7636 46.2536 31.8294 46.1686 31.8777C46.0836 31.9244 45.9869 31.9477 45.8786 31.9477ZM45.9011 31.8277C45.9761 31.8277 46.0403 31.8094 46.0936 31.7727C46.1469 31.7344 46.1878 31.6836 46.2161 31.6202C46.2444 31.5569 46.2586 31.4877 46.2586 31.4127C46.2586 31.3261 46.2419 31.2519 46.2086 31.1902C46.1769 31.1269 46.1336 31.0786 46.0786 31.0452C46.0236 31.0102 45.9611 30.9927 45.8911 30.9927C45.8178 30.9927 45.7536 31.0111 45.6986 31.0477C45.6453 31.0827 45.6044 31.1319 45.5761 31.1952C45.5478 31.2569 45.5336 31.3261 45.5336 31.4027C45.5336 31.4894 45.5494 31.5644 45.5811 31.6277C45.6144 31.6911 45.6586 31.7402 45.7136 31.7752C45.7703 31.8102 45.8328 31.8277 45.9011 31.8277ZM46.7375 31.9277V30.9052L46.8775 30.8777L46.9075 31.1402V31.9277H46.7375ZM46.8775 31.2777L46.835 31.2152C46.89 31.1102 46.9525 31.0286 47.0225 30.9702C47.0925 30.9102 47.1716 30.8802 47.26 30.8802C47.295 30.8802 47.3283 30.8852 47.36 30.8952C47.3916 30.9036 47.4191 30.9169 47.4425 30.9352L47.37 31.0777C47.3516 31.0627 47.3275 31.0511 47.2975 31.0427C47.2691 31.0344 47.24 31.0302 47.21 31.0302C47.145 31.0302 47.085 31.0519 47.03 31.0952C46.9766 31.1369 46.9258 31.1977 46.8775 31.2777ZM48.6628 32.0052L48.1553 30.8927H48.3428L48.7403 31.8077L48.6628 32.0052ZM49.0253 30.8927H49.1978L48.4853 32.6502H48.3028L48.6728 31.8652L49.0253 30.8927ZM49.8923 31.9477C49.7906 31.9477 49.6998 31.9252 49.6198 31.8802C49.5414 31.8352 49.4789 31.7736 49.4323 31.6952C49.3873 31.6152 49.3648 31.5244 49.3648 31.4227C49.3648 31.3161 49.3889 31.2211 49.4373 31.1377C49.4873 31.0544 49.5548 30.9894 49.6398 30.9427C49.7248 30.8944 49.8206 30.8702 49.9273 30.8702C50.0289 30.8702 50.1189 30.8927 50.1973 30.9377C50.2773 30.9827 50.3398 31.0452 50.3848 31.1252C50.4314 31.2036 50.4548 31.2936 50.4548 31.3952C50.4548 31.5019 50.4306 31.5969 50.3823 31.6802C50.3339 31.7636 50.2673 31.8294 50.1823 31.8777C50.0973 31.9244 50.0006 31.9477 49.8923 31.9477ZM49.9148 31.8277C49.9898 31.8277 50.0539 31.8094 50.1073 31.7727C50.1606 31.7344 50.2014 31.6836 50.2298 31.6202C50.2581 31.5569 50.2723 31.4877 50.2723 31.4127C50.2723 31.3261 50.2556 31.2519 50.2223 31.1902C50.1906 31.1269 50.1473 31.0786 50.0923 31.0452C50.0373 31.0102 49.9748 30.9927 49.9048 30.9927C49.8314 30.9927 49.7673 31.0111 49.7123 31.0477C49.6589 31.0827 49.6181 31.1319 49.5898 31.1952C49.5614 31.2569 49.5473 31.3261 49.5473 31.4027C49.5473 31.4894 49.5631 31.5644 49.5948 31.6277C49.6281 31.6911 49.6723 31.7402 49.7273 31.7752C49.7839 31.8102 49.8464 31.8277 49.9148 31.8277ZM51.1037 31.9402C51.0003 31.9402 50.9153 31.9061 50.8487 31.8377C50.7837 31.7677 50.7512 31.6719 50.7512 31.5502V30.9077L50.9212 30.8777V31.4952C50.9212 31.5936 50.9428 31.6711 50.9862 31.7277C51.0312 31.7844 51.0937 31.8127 51.1737 31.8127C51.217 31.8127 51.2612 31.8044 51.3062 31.7877C51.3512 31.7694 51.3937 31.7419 51.4337 31.7052C51.4753 31.6669 51.5095 31.6186 51.5362 31.5602L51.5987 31.6177C51.562 31.6911 51.5162 31.7519 51.4612 31.8002C51.4078 31.8469 51.3503 31.8819 51.2887 31.9052C51.227 31.9286 51.1653 31.9402 51.1037 31.9402ZM51.5237 31.9427L51.4937 31.6877V30.9077L51.6662 30.8777V31.9127L51.5237 31.9427ZM52.0573 31.9277V30.9052L52.1973 30.8777L52.2273 31.1402V31.9277H52.0573ZM52.1973 31.2777L52.1548 31.2152C52.2098 31.1102 52.2723 31.0286 52.3423 30.9702C52.4123 30.9102 52.4915 30.8802 52.5798 30.8802C52.6148 30.8802 52.6481 30.8852 52.6798 30.8952C52.7115 30.9036 52.739 30.9169 52.7623 30.9352L52.6898 31.0777C52.6715 31.0627 52.6473 31.0511 52.6173 31.0427C52.589 31.0344 52.5598 31.0302 52.5298 31.0302C52.4648 31.0302 52.4048 31.0519 52.3498 31.0952C52.2965 31.1369 52.2456 31.1977 52.1973 31.2777ZM54.0327 31.9427C53.9493 31.9427 53.8685 31.9319 53.7902 31.9102C53.7135 31.8869 53.656 31.8552 53.6177 31.8152L53.7852 31.7252C53.8185 31.7586 53.8618 31.7844 53.9152 31.8027C53.9702 31.8194 54.026 31.8277 54.0827 31.8277C54.161 31.8277 54.2268 31.8102 54.2802 31.7752C54.3335 31.7386 54.3735 31.6902 54.4002 31.6302C54.4268 31.5686 54.4402 31.5002 54.4402 31.4252C54.4402 31.3386 54.426 31.2644 54.3977 31.2027C54.3693 31.1394 54.3302 31.0911 54.2802 31.0577C54.2302 31.0244 54.171 31.0077 54.1027 31.0077C54.041 31.0077 53.9768 31.0269 53.9102 31.0652C53.8435 31.1036 53.7877 31.1644 53.7427 31.2477L53.6827 31.1677C53.721 31.1094 53.7643 31.0586 53.8127 31.0152C53.8627 30.9719 53.9168 30.9386 53.9752 30.9152C54.0335 30.8902 54.0968 30.8777 54.1652 30.8777C54.2302 30.8777 54.2902 30.8894 54.3452 30.9127C54.4002 30.9344 54.4485 30.9669 54.4902 31.0102C54.5318 31.0536 54.5643 31.1061 54.5877 31.1677C54.611 31.2277 54.6227 31.2969 54.6227 31.3752C54.6227 31.4752 54.6002 31.5686 54.5552 31.6552C54.5118 31.7419 54.446 31.8119 54.3577 31.8652C54.271 31.9169 54.1627 31.9427 54.0327 31.9427ZM53.6177 31.8152V30.1652L53.7852 30.1352V31.7252L53.6177 31.8152ZM55.346 31.9502C55.2477 31.9502 55.161 31.9302 55.086 31.8902C55.011 31.8486 54.9518 31.7902 54.9085 31.7152C54.8668 31.6386 54.846 31.5486 54.846 31.4452C54.846 31.3302 54.8693 31.2302 54.916 31.1452C54.9643 31.0586 55.0285 30.9919 55.1085 30.9452C55.1902 30.8969 55.2818 30.8727 55.3835 30.8727C55.5068 30.8727 55.5993 30.9077 55.661 30.9777C55.7227 31.0477 55.7535 31.1436 55.7535 31.2652C55.7535 31.2786 55.7527 31.2936 55.751 31.3102C55.751 31.3252 55.7502 31.3394 55.7485 31.3527H55.601V31.2652C55.601 31.1752 55.5827 31.1077 55.546 31.0627C55.5093 31.0161 55.4518 30.9927 55.3735 30.9927C55.3002 30.9927 55.236 31.0111 55.181 31.0477C55.126 31.0827 55.0835 31.1319 55.0535 31.1952C55.0235 31.2586 55.0085 31.3344 55.0085 31.4227C55.0085 31.5427 55.0427 31.6386 55.111 31.7102C55.1793 31.7802 55.2685 31.8152 55.3785 31.8152C55.4352 31.8152 55.4893 31.8052 55.541 31.7852C55.5927 31.7652 55.6427 31.7327 55.691 31.6877L55.7535 31.7802C55.7085 31.8219 55.6627 31.8552 55.616 31.8802C55.571 31.9052 55.526 31.9227 55.481 31.9327C55.436 31.9444 55.391 31.9502 55.346 31.9502ZM54.941 31.3527L54.9635 31.2452H55.726V31.3527H54.941ZM56.7962 31.9427C56.7328 31.9427 56.6828 31.9202 56.6462 31.8752C56.6095 31.8286 56.592 31.7619 56.5937 31.6752L56.6037 31.2027C56.6053 31.1511 56.5995 31.1094 56.5862 31.0777C56.5745 31.0444 56.557 31.0202 56.5337 31.0052C56.5103 30.9886 56.482 30.9802 56.4487 30.9802C56.4137 30.9802 56.3762 30.9886 56.3362 31.0052C56.2962 31.0219 56.2612 31.0477 56.2312 31.0827C56.2028 31.1177 56.1853 31.1627 56.1787 31.2177L56.0137 31.2002C56.022 31.1519 56.0403 31.1077 56.0687 31.0677C56.097 31.0277 56.1328 30.9936 56.1762 30.9652C56.2195 30.9352 56.267 30.9127 56.3187 30.8977C56.3703 30.8811 56.4228 30.8727 56.4762 30.8727C56.5762 30.8727 56.6495 30.9011 56.6962 30.9577C56.7445 31.0127 56.7678 31.0877 56.7662 31.1827L56.7612 31.7077C56.7612 31.7444 56.767 31.7727 56.7787 31.7927C56.792 31.8127 56.8103 31.8227 56.8337 31.8227C56.852 31.8227 56.8703 31.8186 56.8887 31.8102C56.907 31.8019 56.9228 31.7894 56.9362 31.7727L56.9937 31.8527C56.972 31.8794 56.9437 31.9011 56.9087 31.9177C56.8737 31.9344 56.8362 31.9427 56.7962 31.9427ZM56.2437 31.9427C56.1687 31.9427 56.1078 31.9219 56.0612 31.8802C56.0145 31.8369 55.9912 31.7811 55.9912 31.7127C55.9912 31.6727 55.9995 31.6352 56.0162 31.6002C56.0328 31.5652 56.0612 31.5344 56.1012 31.5077C56.1428 31.4794 56.2003 31.4552 56.2737 31.4352L56.6887 31.3227L56.7012 31.4127L56.3162 31.5327C56.2528 31.5527 56.2103 31.5761 56.1887 31.6027C56.1687 31.6294 56.1587 31.6577 56.1587 31.6877C56.1587 31.7294 56.1728 31.7611 56.2012 31.7827C56.2295 31.8027 56.2637 31.8127 56.3037 31.8127C56.3537 31.8127 56.4087 31.7969 56.4687 31.7652C56.5287 31.7319 56.5953 31.6894 56.6687 31.6377L56.6962 31.6977C56.6245 31.7661 56.5512 31.8244 56.4762 31.8727C56.4012 31.9194 56.3237 31.9427 56.2437 31.9427ZM57.5514 31.9402C57.4481 31.9402 57.3631 31.9061 57.2964 31.8377C57.2314 31.7677 57.1989 31.6719 57.1989 31.5502V30.9077L57.3689 30.8777V31.4952C57.3689 31.5936 57.3906 31.6711 57.4339 31.7277C57.4789 31.7844 57.5414 31.8127 57.6214 31.8127C57.6647 31.8127 57.7089 31.8044 57.7539 31.7877C57.7989 31.7694 57.8414 31.7419 57.8814 31.7052C57.9231 31.6669 57.9572 31.6186 57.9839 31.5602L58.0464 31.6177C58.0097 31.6911 57.9639 31.7519 57.9089 31.8002C57.8556 31.8469 57.7981 31.8819 57.7364 31.9052C57.6747 31.9286 57.6131 31.9402 57.5514 31.9402ZM57.9714 31.9427L57.9414 31.6877V30.9077L58.1139 30.8777V31.9127L57.9714 31.9427ZM58.8951 31.9452C58.8351 31.9452 58.7809 31.9327 58.7326 31.9077C58.6842 31.8827 58.6467 31.8469 58.6201 31.8002C58.5934 31.7536 58.5801 31.6961 58.5801 31.6277V30.9427L58.6376 30.6727L58.7526 30.6502V31.6002C58.7526 31.6719 58.7692 31.7261 58.8026 31.7627C58.8359 31.7994 58.8817 31.8177 58.9401 31.8177C58.9767 31.8177 59.0134 31.8111 59.0501 31.7977C59.0867 31.7844 59.1226 31.7636 59.1576 31.7352L59.2076 31.8177C59.1609 31.8611 59.1101 31.8936 59.0551 31.9152C59.0017 31.9352 58.9484 31.9452 58.8951 31.9452ZM59.1526 31.0352L58.3701 31.0327L58.3826 30.9202L59.1601 30.9102L59.1526 31.0352ZM59.8323 32.0052L59.3248 30.8927H59.5123L59.9098 31.8077L59.8323 32.0052ZM60.1948 30.8927H60.3673L59.6548 32.6502H59.4723L59.8423 31.8652L60.1948 30.8927Z" fill="#F25912"/>
</svg>
